<mxfile host="65bd71144e">
    <diagram id="quXs2qopi8QhNGKc_SdV" name="Page-1">
        <mxGraphModel dx="1144" dy="787" grid="0" gridSize="10" guides="1" tooltips="1" connect="1" arrows="1" fold="1" page="1" pageScale="1" pageWidth="850" pageHeight="1100" background="#ffffff" math="0" shadow="0">
            <root>
                <mxCell id="0"/>
                <mxCell id="1" parent="0"/>
                <mxCell id="2" value="Prompt will appear here..." style="rounded=0;whiteSpace=wrap;html=1;fillColor=#f5f5f5;fontColor=#333333;strokeColor=#666666;" vertex="1" parent="1">
                    <mxGeometry x="8" y="24" width="395" height="211" as="geometry"/>
                </mxCell>
                <mxCell id="3" value="Clicking it will show the answer..." style="rounded=0;whiteSpace=wrap;html=1;fillColor=#f5f5f5;fontColor=#333333;strokeColor=#666666;" vertex="1" parent="1">
                    <mxGeometry x="444" y="24" width="395" height="211" as="geometry"/>
                </mxCell>
                <mxCell id="5" value="Perfect" style="rounded=1;whiteSpace=wrap;html=1;fillColor=#f5f5f5;fontColor=#333333;strokeColor=#666666;" vertex="1" parent="1">
                    <mxGeometry x="758" y="191" width="65" height="30" as="geometry"/>
                </mxCell>
                <mxCell id="7" value="Partial" style="rounded=1;whiteSpace=wrap;html=1;fillColor=#f5f5f5;fontColor=#333333;strokeColor=#666666;" vertex="1" parent="1">
                    <mxGeometry x="607" y="191" width="65" height="30" as="geometry"/>
                </mxCell>
                <mxCell id="8" value="Failed" style="rounded=1;whiteSpace=wrap;html=1;fillColor=#f5f5f5;fontColor=#333333;strokeColor=#666666;" vertex="1" parent="1">
                    <mxGeometry x="457" y="191" width="65" height="30" as="geometry"/>
                </mxCell>
                <mxCell id="10" value="After the test, show the results:&lt;br&gt;Prompt #1: Failed&lt;br&gt;Prompt #2: Perfect&lt;br&gt;Prompt #3: Perfect&lt;br&gt;Prompt #4: Partial" style="rounded=0;whiteSpace=wrap;html=1;fillColor=#f5f5f5;fontColor=#333333;strokeColor=#666666;" vertex="1" parent="1">
                    <mxGeometry x="8" y="318" width="395" height="211" as="geometry"/>
                </mxCell>
            </root>
        </mxGraphModel>
    </diagram>
</mxfile>